<?xml version="1.0" encoding="UTF-8"?><svg id="Layer_1" xmlns="http://www.w3.org/2000/svg" viewBox="0 0 2000 2000"><path d="M382.866,1539.151l-17.232-8.818-7.637-4.071-20.223-11.026-11.175-5.944-7.711-4.023-10.951-5.834-15.15-8.21-15.136-8.048-15.69-7.932-16.114-8.643-8.512-4.548-6.917-3.6-12.942-6.735-10.406-5.154-8.669-4.158-10.249-4.396-6.554-3.38-17.866-8.225-15.867-7.636-14.669-7.545-6.745-3.875c-8.775-5.041-18.23-11.092-21.99-20.88l-3.635-9.46-1.826-8.609c3.675-20.949,12.21-31.159,31.79-39.743l14.655-6.425,9.359-3.461,8.774-3.138,7.058-2.937,14.655-6.485,8.158-3.521,11.196-4.432,15.151-7.042,21.555-8.297,8.352-3.105,16.233-4.979,11.882-4.576,16.737-5.509,10.389-4.05,10.318-3.943,20.516-7.102,18.088-6.677,7.478-2.759,12.586-4.07,14.329-4.104,12.997-3.647,13.766-3.424,17.277-4.555c6.075-1.602,10.663-3.028,16.672-4.376l27.909-6.261,9.644-3.107,25.179-4.113,25.892-5.027,13.188-1.288,13.189-1.113,8.481-1.558,13.299-2.118,16.057-1.021,10.195-1.399,24.491-.448,5.526-1.2,66.176.101,14.459,1.621,11.605,1.255,11.838,1.372,18.098,3.263,15.753,1.21,15.503,1.671,10.494,1.483,15.784,2.231,10.336,1.219,74.168-.228,23.375-3.862,16.908-1.922,14.503-1.275c3.297-.29,6.638-1.175,9.649-2.028l11.175-3.166,20.683-4.444,30.023-7.874,19.528-5.82c5.343-1.593,8.976-2.663,14.081-4.431l13.507-4.678,8.877-2.869,15.375-5.697,21.488-8.531,12.202-5.71,9.78-4.44,8.219-3.732,8.546-4.247,14.355-7.832,20.127-11.242,7.625-4.073,10.889-7.352,10.031-6.96,12.514-8.429,8.177-5.978,18.537-14.017,8.128-6.18,6.54-5.163,7.15-5.896,8.961-7.952,9.532-8.736,16.064-15.159,6.957-6.117,6.235-5.368,14.173-13.341,5.49-4.763,26.958-26.603,6.252-5.227,7.764-6.696,9.815-8.461,10.19-8.024,8.018-6.356,12.147-8.655,11.742-7.865,15.333-9.372,11.76-6.502,10.886-6.018,17.733-9.613,15.332-8.194,7.539-3.912,8.301-3.638,17.286-8.759,7.768-3.936,7.802-3.989,7.638-3.977,8.621-4.489,7.658-3.848,9.079-4.131,8.025-3.67,9.176-3.964,20.27-8.317,21.693-8.168,14.389-4.921,10.55-3.832,14.62-5.025,9.394-3.533,10.901-3.132c5.185-1.49,8.805-3.103,14-4.611l10.694-3.104c5.541-1.609,9.56-3.339,14.988-5.03l8.735-2.721,13.646-3.482,8.7-3.356,12.971-4.095,14.479-4.6,16.084-4.851,20.943-6.145,10.721-2.532,26.065-6.748,19.733-4.872,20.211-1.99c13.78-1.357,28.463,6.826,34.005,19.854l3.451,8.114-.004,24.203c-1.29,2.574-3.025,6.381-3.811,8.858l-3.147,9.909-8.051,19.334-8.094,16.535-7.519,14.807-3.308,7.246-5.155,10.226-8.821,17.2-5.397,10.327-4.488,8.803-4.139,7.42-3.756,6.659-8.037,15.142-6.063,12.092-8.807,16.178-6.135,12.314-4.499,9.875-11.072,21.419-2.62,4.718-7.913,15.696-3.366,7.039-4.076,8.988-5.475,11.671-4.21,8.655-6.402,15.611-3.978,10.329-3.226,7.296-4.093,8.898-4.246,8.712-7.761,15.679-4.895,9.443-11.155,20.139-6.996,12.629-3.246,5.936-7.326,13.354-6.915,12.606-6.108,10.958-4.415,7.419-8.8,14.557-7.977,12.803-5.545,8.638-7.824,11.76-7.812,11.734-8.101,12.522-7.506,12.163-7.332,11.048-11.142,14.901-6.246,7.895-6.688,9.091-12.34,16.253-4.664,5.813-12.281,15.006-6.654,7.779-8.573,9.584-7.035,7.412-8.867,9.342-28.91,29.569-4.595,4.585-16.605,15.943-10.158,9.376-11.596,10.513-9.787,8.509-9.091,7.845-8.375,7.295-22.745,17.599-8.363,5.951-11.422,8.07-10.046,6.777-11.168,7.123-10.518,6.446-9.657,5.811-20.876,11.821-9.024,5.157-14.222,8.037-11.934,6.21-15.633,7.942-12.921,6.836-8.447,4.326-9.76,4.734-17.942,8.18-8.938,3.717-11.926,4.047-14.47,5.914-11.755,4.088-19.127,5.709c-8.203,4.058-16.694,4.821-25.475,7.524l-11.513,3.543-11.683,2.741-13.076,3.723-8.577,2.845-10.472,1.739c-3.408.566-6.185,2.065-9.772,3.039l-10.951,2.975-10.598,1.655-14.321,3.85c-8.592,2.31-17.513,3.08-26.329,4.903l-18.307,3.784-21.469,4.296-19.563,1.575-17.004,2.395-12.889,1.22-15.988,1.191-23.698.485c-.746.015-2.675,2.544-3.316,2.262l-3.764-1.66c-1.95-.86-6.709-.887-8.73-.218l-7.259,2.402c-2.003.663-6.922-2.3-9.008-2.476l-15.529-1.311-13.026-.787-10.402-1.042-19.84-3.424-13.834-.536-11.855-1.454-9.185-1.152-10.092-1.608-21.067-4.615-10.821-1.059-10.547-2.169-9.254-2.797-8.623-1.434-13.538-2.16-18.255-4.921-26.782-6.296-14.211-3.272-9.452-3.162-16.453-4.584-12.54-4.129-10.839-3.617-11.712-3.945-11.727-3.849-17.845-6.313-21.275-7.608-22.606-8.669-19.367-7.968-21.726-9.574-14.821-7.25-15.769-7.706-8.879-4.223-9.634-4.504-13.951-6.927-9.77-4.757-7.613-3.893-13.817-7.048-17.468-8.643-7.995-3.87-6.837-3.439Z" style="fill:#ff5c8d;"/><path d="M550.214,1011.114l-11.194,7.057-11.81,7.93-8.064,6.055-15.366,9.809-10.541,8.417-13.748,8.813-6.808,5.849-12.374,8.636-11.692,7.88-13.088,8.921-11.697,7.929-11.089,7.251-8.655,5.459-9.641,5.897-9.657,5.985-13.667,8.535-7.418,4.275-8.164,4.614-12.705,7.156-13.923,7.05-13.077,6.214-8.004,3.649-13.583,5.924-4.223,2.393-21.011,8.728-14.472,6.412-16.409,7.398-17.822,6.924-5.321,2.526-17.617,5.693-9.278,3.712-11.362,3.155-24.754,7.846-11.043,4.391-13.354,3.648-27.476,8.992c-15.273,6.187-36.737,10.496-48.95,2.259-3.407-2.298-8.424-6.089-9.935-9.116l-4.177-8.365c-2.675-5.355-3.86-13.583-2.961-19.823l1.465-10.166,4.55-13.945,3.349-8.037,9.689-16.444,3.548-5.536,6.799-10.06,7.372-10.904,9.084-15.455,5.793-11.259,5.462-10.469,3.787-6.203,5.541-11.748,3.823-7.789,3.922-7.85,3.997-7.694,5.728-11.025,5.334-10.311,8.775-14.931,4.299-8.532,11.493-19.915,6.913-12.515,3.926-7.612,8.614-16.16,8.488-16.169,6.413-13.296,6.843-14.194,4.267-8.623,3.516-6.874,6.357-11.928,4.537-8.509,4.534-8.417,4.139-7.612,7.414-13.321,5.819-9.732,12.685-21.176,4.833-8.138,7.794-13.038,9.877-17.509,5.684-9.95,5.275-9.159,7.76-13.205,3.412-5.412,7.811-11.775,7.801-11.761,9.099-12.976,7.259-9.708,10.87-15.178,5.33-7.689,8.619-12.24,8.103-11.503,13.907-18.439,2.755-4.164,12.05-15.022,9.848-11.103,6.41-7.939,43.495-43.605,3.884-2.794,17.768-17.276,5.773-4.505,11.033-8.725,20.571-15.744,18.115-10.565,6.435-3.902,10.687-6.471,7.378-4.214,7.937-3.935,15.668-7.921,12.651-5.276,11.264-4.406,13.51-4.458,21.55-4.689,20.287-3.007c13.616-2.018,27.398-1.486,41.253-.139l12.933,1.257,12.018,1.146,9.956,1.591,23.449,3.911,9.342,1.162,18.985,3.074,14.724,3.433,14.633,1.327,12.624,1.471c12.765,1.487,26.768.083,35.291-8.433l15.02-15.007,8.617-10.911,13.538-16.464,7.76-9.042,13.244-14.138,10.653-11.503,9.407-8.778,5.525-4.968,8.387-7.313,8.872-6.653,11.004-7.408,18.669-11.271,16.975-8.947,17.193-7.848,7.756-3.555,13.863-4.695c7.314-2.477,14.213-4.12,21.944-5.48l10.87-1.912c7.5-1.32,14.03-4.262,21.635-4.666l19.686-1.047,14.669-.776c1.937-.103,5.699-1.64,7.567-2.7l53.027-.103c3.548,2.718,7.587,3.729,11.831,3.951l12.158.636,21.106,3.899,13.829,2,29.27,4.638,13.555,3.195,25.494,4.529,12.98,3.6,14.453,2.788,9.205,3.505,16.155,3.588c3.873.86,7.824,2.268,11.238,4.134l28.423,7.951,12.111,3.779,12.556,4.186,11.979,3.993,8.976,3.562,20.743,8.061,20.28,8.415,21.748,9.448,8.351,3.627,6.905,3.245,12.773,5.647,6.053,3.309,18.184,7.433,7.221,3.247,9.537,4.766,8.743,4.241,23.031,11.017,12.247,5.923,6.937,3.408,14.197,6.793,15.263,6.897,6.162,2.986,8.753,4.183,8.31,3.515,13.895,6.628,16.654,8.081,8.909,4.161,7.053,3.418,16.594,8.06,8.159,3.714,7.893,3.708,17.702,8.338,18.334,8.913,8.945,4.299,6.789,3.559,13.689,6.183,10.826,4.797,11.783,6.126,11.978,4.984,8.8,4.383,8.622,4.06,8.348,5.128,7.967,6.127c6.123,4.709,11.537,10.071,16.043,16.671,4.822,7.064,5.028,16.417,5.339,24.796.351,9.464-1.689,17.102-9.243,22.851l-7.282,5.542-13.79,7.384-8.089,4.407-10.639,4.259-8.598,3.939-12.456,4.999-7.813,3.385-12.659,4.605-16.3,5.736-15.61,4.885-20.134,4.823c-6.277,1.504-11.373,3.246-17.824,4.773l-12.476,2.953-10.15,3.588-18.206,2.933-10.913,3.337-18.689,3.299-9.388,1.068c-4.706.535-9.007,1.614-13.236,3.63l-18.036,3.011-7.361.491-10.523,1.427-35.27,5.816-14.343,1.448-11.653,1.201-37.813.679-15.425,2.159-17.125.99-51.951.864-14.456.856-11.898.84-20.37.682-5.723.843-19.217.614-19.497,3.352-10.631,1.057-14.227,1.386-13.119,1.124-27.573,3.905-25.766,4.201c-4.794.782-8.909,1.992-13.535,3.364l-21.442,6.361-9.541,4.392-9.197,3.802-14.529,8.008-11.713,7.413-12.646,8.576-9.531,8.256-11.21,8.613-9.703,8.329-16.284,13.738-11.692,9.173-7.879,6.383-13.03,10.455-8.899,6.655-12.413,8.467-11.788,7.827-7.94,4.914-9.065,5.32-12.278,5.95-6.642,3.502-14.686,6.404-10.186,3.954-9.751,3.407-13.691,4.415-15.237,4.373-19.665,5.09-7.34.781-23.764,4.448-11.983,1.374-67.46.094-5.443-1.429-64.84.16-17.189,1.537-11.198,1.531-24.191,5.624-14.668,4.695-17.548,6.34-7.439,3.785-9.284,4.202-12.405,6.672-10.38,5.495-8.413,4.456-13.903,8.34-11.492,6.893-10.594,7.269-9.612,6.103-24.821,15.523-7.211,4.509Z" style="fill:#ff5c8d;"/></svg>