<?xml version="1.0" encoding="UTF-8"?>
<svg id="Layer_1" xmlns="http://www.w3.org/2000/svg" version="1.1" viewBox="0 0 512 512">
  <!-- Generator: Adobe Illustrator 30.1.0, SVG Export Plug-In . SVG Version: 2.1.1 Build 136)  -->
  <defs>
    <style>
      .st0 {
        fill: blue;
      }

      .st1 {
        fill: #fff;
      }

      .st2 {
        fill: #f2f2f2;
      }

      .st3 {
        fill: #333;
      }
    </style>
  </defs>
  <g>
    <path class="st3" d="M404,341.6h-28c-31.3-3.8-51-16.4-72.8-39.1l-43.9-45.8c-2.1-2.2-5.6-2.2-7.7,0l-50.5,52.1c-18,18.6-40.8,29.4-66.5,31.4-24.6,2-51.4-5.1-70.7-20.3,63.7,10.6,117.8-51.2,156.8-93.1,1.9-2.1,3.1-5,1-7.3-13.1-14.5-25.8-28.4-40-41.8-25.4-23.9-64.9-51-100.6-52.1l-20.3-.6c19.4-16.2,43.9-23.4,69.2-22.5,40.5,1.5,64.9,25.5,90.5,52.3l30.2,31.6c2,2.1,5.6,2.4,7.8.5,23.6-20.4,36-38.6,58.3-58.5,21.3-18.9,48.2-28.6,76.7-26.4,21.5,1.7,41.5,9.2,57.7,22.5-21.7-1.8-44.8,4.3-64.8,13.1-12.9,5.7-33.9,19.8-44.1,28.9l-10.6,9.6c-8.9,8-17.4,16.5-25.4,25.3l-15.3,16.8c-1,1.1-2.6,3.2-2.6,4.4s1.6,3.3,2.6,4.3l10.7,11.4,18.6,19.2c3.5,3.6,6.5,6.7,10.2,10.1l16.3,15.5,10,8c6.6,5.3,13.1,10.7,20.7,14.3l9.6,4.5c14.5,6.9,31.3,10.4,46.7,10.7l10.9.2c.4,0,1-1.6,1-2.1s1.7.7,3.3,1.6c-10,7.1-21.5,13.7-34.1,17.6-3.9,1.2-7.7,2.1-10.8,3.6Z"/>
    <g>
      <path class="st1" d="M14,218.2v-117.5h484v111.5c-3.5-30.8-15.9-59.9-38.9-81.8s-8.4-3.8-12.6-3.8c-26.6-.2-53.3,6.6-75.8,22.6,30.2-3.9,60.1,8.2,76.3,33.9,16.2,25.7,14.1,59-3.6,83.4-19.2,24.1-49.7,33.7-79.9,26.6,24.6,20.6,55.5,29.2,86.2,24.7,6.3-.9,11-5.7,15.6-9.8,19.1-21.1,29.4-47.3,32.7-74.9v108.5h-94c3.1-1.5,6.9-2.4,10.8-3.6,12.6-3.9,24.1-10.5,34.1-17.6-1.7-1-3.4-2.2-3.3-1.6s-.5,2.1-1,2.1l-10.9-.2c-15.4-.3-32.2-3.8-46.7-10.7l-9.6-4.5c-7.6-3.6-14.1-9.1-20.7-14.3l-10-8-16.3-15.5c-3.6-3.4-6.7-6.5-10.2-10.1l-18.6-19.2-10.7-11.4c-1-1.1-2.6-3.1-2.6-4.3s1.6-3.3,2.6-4.4l15.3-16.8c8.1-8.8,16.5-17.3,25.4-25.3l10.6-9.6c10.2-9.1,31.2-23.2,44.1-28.9,20-8.9,43.1-15,64.8-13.1-16.3-13.3-36.3-20.9-57.7-22.5-28.5-2.2-55.5,7.5-76.7,26.4-22.3,19.9-34.7,38.1-58.3,58.5-2.2,1.9-5.7,1.6-7.8-.5l-30.2-31.6c-25.6-26.7-50.1-50.7-90.5-52.3-25.3-1-49.8,6.2-69.2,22.5l20.3.6c35.7,1,75.2,28.1,100.6,52.1,14.2,13.4,26.9,27.4,40,41.8s.9,5.2-1,7.3c-39,42-93.1,103.8-156.8,93.1,19.3,15.2,46.1,22.2,70.7,20.3,25.8-2,48.6-12.9,66.5-31.4l50.5-52.1c2.1-2.2,5.6-2.1,7.7,0l43.9,45.8c21.7,22.7,41.5,35.4,72.8,39.1H14v-117.5c1.4,2.3.6,5.7.9,9.1,2.5,29.4,15.6,56.3,35.9,77.5,3.7,3.9,8,6.4,13.5,7,28.9,3.2,57.9-4.7,81.3-23.1-31.3,6.8-61.9-3.9-80.7-28.6-17.3-24.7-18.6-57.2-3.2-83.1,16.4-25.1,44.1-37.7,75.2-35.3-22.2-16.1-49.4-21.9-75.9-19.8s-8.9,2.1-12.2,5.7c-19.4,21-31.9,47.7-33.9,76.5s0,5.6-1,8.1Z"/>
      <path class="st0" d="M498,212.2v20.9c-3.3,27.6-13.6,53.8-32.7,74.9-4.6,4.1-9.2,8.8-15.6,9.8-30.7,4.5-61.7-4.1-86.2-24.7,30.1,7.1,60.7-2.6,79.9-26.6,17.7-24.4,19.8-57.6,3.6-83.4-16.2-25.7-46.2-37.8-76.3-33.9,22.5-16,49.2-22.8,75.8-22.6,4.2,0,9.6,1,12.6,3.8,23.1,22,35.5,51.1,38.9,81.8Z"/>
      <path class="st0" d="M14,224.1v-6c1.1-2.5.8-5.1,1-8.1,2-28.8,14.4-55.5,33.9-76.5,3.3-3.5,7.4-5.3,12.2-5.7,26.5-2,53.7,3.8,75.9,19.8-31.1-2.4-58.8,10.2-75.2,35.3-15.5,25.9-14.2,58.4,3.2,83.1,18.8,24.7,49.4,35.4,80.7,28.6-23.3,18.4-52.4,26.3-81.3,23.1-5.5-.6-9.8-3.1-13.5-7-20.3-21.2-33.4-48.1-35.9-77.5-.3-3.4.5-6.8-.9-9.1Z"/>
    </g>
  </g>
  <g>
    <g>
      <path class="st2" d="M92.2,367.7l8.8,14.9h.3l8.8-14.9h10.4l-13.3,21.8,13.6,21.8h-10.6l-8.9-14.9h-.3l-8.9,14.9h-10.6l13.7-21.8-13.4-21.8h10.5Z"/>
      <path class="st2" d="M126.5,411.4v-43.6h29.4v7.6h-20.2v10.4h18.7v7.6h-18.7v10.4h20.3v7.6h-29.5Z"/>
      <path class="st2" d="M199.7,367.7v43.6h-8l-19-27.5h-.3v27.5h-9.2v-43.6h8.1l18.8,27.4h.4v-27.4h9.2Z"/>
      <path class="st2" d="M245.8,383h-9.3c-.2-1.2-.5-2.3-1-3.2-.5-.9-1.2-1.8-2-2.4-.8-.7-1.8-1.2-2.8-1.5-1.1-.4-2.2-.5-3.5-.5-2.3,0-4.2.6-5.9,1.7-1.7,1.1-3,2.7-3.9,4.9-.9,2.1-1.4,4.7-1.4,7.7s.5,5.7,1.4,7.8c.9,2.1,2.2,3.7,3.9,4.8,1.7,1.1,3.6,1.6,5.8,1.6s2.4-.2,3.4-.5,2-.8,2.8-1.4c.8-.6,1.5-1.4,2.1-2.3.5-.9.9-1.9,1.1-3.1h9.3c-.2,2-.8,4-1.8,5.8-1,1.9-2.2,3.5-3.9,5-1.6,1.5-3.5,2.6-5.8,3.5-2.2.8-4.7,1.3-7.5,1.3s-7.4-.9-10.4-2.6c-3.1-1.8-5.5-4.3-7.2-7.6s-2.7-7.4-2.7-12.1.9-8.8,2.7-12.1c1.8-3.3,4.2-5.9,7.3-7.6,3.1-1.8,6.5-2.6,10.4-2.6s4.9.4,7,1.1c2.2.7,4.1,1.7,5.8,3.1,1.7,1.4,3,3,4.1,5,1.1,2,1.7,4.2,2,6.7Z"/>
      <path class="st2" d="M292.5,389.5c0,4.8-.9,8.8-2.7,12.1s-4.2,5.9-7.3,7.6c-3.1,1.8-6.6,2.6-10.4,2.6s-7.4-.9-10.4-2.6c-3.1-1.8-5.5-4.3-7.3-7.6-1.8-3.3-2.7-7.4-2.7-12.1s.9-8.8,2.7-12.1c1.8-3.3,4.2-5.9,7.3-7.6,3.1-1.8,6.6-2.6,10.4-2.6s7.3.9,10.4,2.6c3.1,1.8,5.5,4.3,7.3,7.6s2.7,7.4,2.7,12.1ZM283.2,389.5c0-3.1-.5-5.7-1.4-7.8s-2.2-3.7-3.9-4.8-3.6-1.6-5.8-1.6-4.2.5-5.8,1.6c-1.7,1.1-3,2.7-3.9,4.8-.9,2.1-1.4,4.7-1.4,7.8s.5,5.7,1.4,7.8c.9,2.1,2.2,3.7,3.9,4.8,1.7,1.1,3.6,1.6,5.8,1.6s4.2-.5,5.8-1.6,3-2.7,3.9-4.8c.9-2.1,1.4-4.7,1.4-7.8Z"/>
    </g>
    <g>
      <path class="st2" d="M306,410.7v-40.7h3.7v37.4h19.4v3.3h-23.1Z"/>
      <path class="st2" d="M337.6,410.7h-3.9l14.8-40.7h4l14.8,40.7h-3.9l-12.8-35.9h-.3l-12.8,35.9ZM340.4,395.1h20.2v3.3h-20.2v-3.3Z"/>
      <path class="st2" d="M374.3,410.7v-40.7h13.7c2.7,0,4.9.5,6.6,1.4,1.8.9,3.1,2.2,4,3.8.9,1.6,1.3,3.4,1.3,5.5s-.3,3.1-.9,4.4-1.3,2.2-2.3,2.9c-1,.7-2.1,1.3-3.3,1.6v.3c1.3,0,2.6.6,3.8,1.4,1.2.8,2.2,2,3,3.5.8,1.5,1.2,3.3,1.2,5.3s-.5,3.9-1.4,5.5c-.9,1.6-2.3,2.9-4.2,3.8-1.9.9-4.3,1.4-7.2,1.4h-14.5ZM378,388.3h10.4c1.6,0,3-.3,4.2-1,1.2-.7,2.1-1.6,2.8-2.7.7-1.2,1-2.5,1-4,0-2.2-.7-3.9-2.1-5.3-1.4-1.4-3.5-2-6.3-2h-10v15.1ZM378,407.3h10.8c3.1,0,5.5-.7,7-2.1,1.5-1.4,2.3-3.1,2.3-5.2s-.4-3-1.1-4.2c-.7-1.3-1.8-2.3-3.2-3-1.4-.7-3-1.1-4.8-1.1h-10.9v15.7Z"/>
      <path class="st2" d="M432.6,380.1c-.2-2.3-1.2-4.1-3-5.4s-4-2-6.7-2-3.6.3-5,1-2.6,1.5-3.4,2.7c-.8,1.1-1.2,2.4-1.2,3.9s.2,2,.7,2.8,1.1,1.5,1.9,2.1,1.7,1.1,2.6,1.5,1.9.8,2.9,1l4.3,1.2c1.3.4,2.6.8,3.9,1.4,1.3.6,2.5,1.3,3.6,2.1,1.1.8,1.9,1.9,2.6,3.1.7,1.2,1,2.7,1,4.4s-.6,4.1-1.7,5.9c-1.1,1.7-2.7,3.1-4.9,4.1-2.1,1-4.6,1.5-7.6,1.5s-5.2-.5-7.2-1.4c-2-.9-3.6-2.2-4.8-3.8-1.2-1.6-1.8-3.5-2-5.7h3.8c.1,1.6.7,3,1.6,4.1.9,1.1,2.1,2,3.6,2.5,1.5.6,3.1.9,5,.9s3.8-.3,5.4-1,2.8-1.6,3.7-2.9c.9-1.2,1.4-2.7,1.4-4.3s-.4-2.5-1.1-3.5-1.7-1.7-3-2.4c-1.3-.6-2.8-1.2-4.4-1.7l-4.9-1.4c-3.2-1-5.7-2.3-7.4-4-1.8-1.7-2.6-3.8-2.6-6.4s.6-4.1,1.8-5.8c1.2-1.7,2.8-3,4.8-3.9s4.3-1.4,6.8-1.4,4.8.5,6.7,1.4c1.9.9,3.5,2.2,4.6,3.8,1.1,1.6,1.8,3.5,1.8,5.5h-3.6Z"/>
    </g>
  </g>
  <text/>
</svg>