<?xml version="1.0" encoding="UTF-8"?><svg id="Layer_1" xmlns="http://www.w3.org/2000/svg" viewBox="0 0 240 80"><path d="M59,29.622v-.73h2.528v.999h-.185l-2.343-.269ZM61.528,39.877v.999h-2.528v-.73l2.343-.269h.185ZM60.683,34.443c0-1.844,0-3.707-.054-5.551h1.799c-.054,1.809-.054,3.671-.054,5.551v.675c0,2.051,0,3.913.054,5.758h-1.799c.054-1.809.054-3.671.054-5.757v-.676ZM61.528,40.041h2.3c2.768,0,4.292-1.89,4.292-5.14,0-3.371-1.525-5.173-4.139-5.173h-2.454v-.835h2.756c3.426,0,5.786,2.12,5.786,6.007,0,3.86-2.643,5.977-6.142,5.977h-2.401v-.835Z" style="fill:#0f4c5c;"/><path d="M72.52,40.876c.036-.806.054-2.65.054-3.76v-.842c0-.985-.018-1.54-.054-2.256l-1.448-.161v-.631l2.764-1.081.271.18-.054,2.428v2.364c0,1.11.018,2.954.054,3.76h-1.587ZM75.338,40.238v.639h-4.155v-.639l1.952-.358h.415l1.788.358ZM72.093,29.015c0-.689.528-1.145,1.201-1.145s1.201.456,1.201,1.145c0,.672-.528,1.145-1.201,1.145s-1.201-.473-1.201-1.145Z" style="fill:#0f4c5c;"/><path d="M79.314,36.168c.751-.266,1.888-.589,2.78-.752v.651c-.808.164-1.859.5-2.396.716-1.566.61-1.765,1.286-1.765,1.824,0,.946.618,1.324,1.429,1.324.61,0,.964-.228,2.061-1.011l.379-.284.247.369-.532.536c-1.063,1.066-1.669,1.57-2.773,1.57-1.311,0-2.396-.756-2.396-2.241,0-1.018.547-1.829,2.967-2.702ZM81.333,39.239v-4.105c0-1.745-.49-2.177-1.67-2.177-.414,0-.946.054-1.615.319l.746-.563-.447,1.523c-.154.558-.441.855-.936.855-.492,0-.787-.271-.829-.727.326-1.368,1.658-2.22,3.493-2.22,1.87,0,2.766.849,2.766,3.113v3.809c0,.78.245,1.06.648,1.06.298,0,.492-.157.689-.394l.365.39c-.43.697-.922.938-1.558.938-.998,0-1.644-.712-1.653-1.82Z" style="fill:#0f4c5c;"/><path d="M84.83,40.238l1.919-.358-.6.997c.036-.806.054-2.65.054-3.76v-7.86l-1.465-.177v-.634l2.743-.806.253.145-.072,2.54v3.397l.054.233v5.512l-.195,1.591-2.692-.183v-.639ZM92.212,36.694c0-2.299-.936-3.532-2.28-3.532-.662,0-1.535.326-2.8,1.593l-.161-.321c1.038-1.596,2.203-2.29,3.442-2.29,1.901,0,3.408,1.625,3.408,4.395s-1.589,4.572-3.68,4.572c-1.122,0-2.222-.508-3.162-2.369l.161-.289c.92,1.171,1.863,1.644,2.707,1.644,1.275,0,2.366-1.104,2.366-3.402Z" style="fill:#0f4c5c;"/><path d="M102.521,35.585c0,.41-.052.764-.124,1.001h-6.63v-.763h4.21c.859,0,1.058-.407,1.058-.925,0-1.029-.842-1.941-1.943-1.941-1.123,0-2.411.958-2.411,3.52,0,2.269,1.142,3.473,2.907,3.473,1.136,0,1.849-.513,2.488-1.254l.424.337c-.65,1.279-1.804,2.078-3.439,2.078-2.411,0-3.986-1.668-3.986-4.399,0-2.754,1.887-4.568,4.113-4.568,1.874,0,3.335,1.274,3.335,3.441Z" style="fill:#0f4c5c;"/><path d="M107.2,40.183c.39,0,.745-.16,1.203-.495l.414.48c-.449.592-1.189.943-2.108.943-1.258,0-2.038-.649-2.038-2.05,0-.441.018-.823.018-1.521v-4.213h-1.484v-.787l2.214-.286-.734.598.571-2.913h1.083l-.137,3.139v5.786c0,.926.393,1.319.998,1.319ZM108.64,32.379v.948h-3.193v-.948h3.193Z" style="fill:#0f4c5c;"/><path d="M116.756,35.585c0,.41-.052.764-.124,1.001h-6.63v-.763h4.21c.86,0,1.058-.407,1.058-.925,0-1.029-.842-1.941-1.943-1.941-1.123,0-2.411.958-2.411,3.52,0,2.269,1.142,3.473,2.907,3.473,1.136,0,1.849-.513,2.488-1.254l.424.337c-.65,1.279-1.804,2.078-3.439,2.078-2.411,0-3.986-1.668-3.986-4.399,0-2.754,1.887-4.568,4.113-4.568,1.874,0,3.335,1.274,3.335,3.441Z" style="fill:#0f4c5c;"/><path d="M118.185,40.423l-.065-1.966h.977l.479,2.129-.885-.408v-.616c.636.483,1.313.733,2.205.733,1.359,0,1.999-.543,1.999-1.36,0-.758-.525-1.151-1.656-1.559l-.832-.303c-1.311-.479-2.167-1.19-2.167-2.415,0-1.31,1.105-2.514,3.117-2.514.972,0,1.73.268,2.509.734l-.074,1.817h-.926l-.367-1.832.665.295v.477c-.577-.445-1.173-.674-1.827-.674-1.092,0-1.663.476-1.663,1.222,0,.788.437,1.095,1.656,1.538l.556.2c1.785.654,2.466,1.5,2.466,2.623,0,1.357-1.185,2.568-3.49,2.568-1.012,0-1.795-.235-2.677-.689Z" style="fill:#0f4c5c;"/><path d="M134.844,39.107v.981l-1.115.251.457-2.659h1.108l-.072,2.605c-1.119.604-2.356.862-3.625.862-3.607,0-6.062-2.581-6.062-6.264,0-3.619,2.568-6.264,6.052-6.264.989,0,2.25.169,3.459.861l.072,2.607h-1.108l-.457-2.66,1.115.252v1.087c-1.011-.939-1.998-1.244-2.854-1.244-2.389,0-4.325,1.862-4.325,5.363s1.747,5.361,4.202,5.361c1.013,0,2.144-.308,3.154-1.139Z" style="fill:#0f4c5c;"/><path d="M136.435,36.659c0-2.96,2.021-4.515,4.109-4.515,2.054,0,4.109,1.553,4.109,4.515s-2.043,4.452-4.109,4.452c-2.101,0-4.109-1.492-4.109-4.452ZM142.961,36.662c0-2.407-.89-3.704-2.417-3.704-1.56,0-2.417,1.297-2.417,3.704s.856,3.636,2.417,3.636c1.526,0,2.417-1.228,2.417-3.636Z" style="fill:#0f4c5c;"/><path d="M147.125,40.876c.036-.806.054-2.65.054-3.76v-.853c0-.985-.017-1.53-.054-2.246l-1.413-.161v-.631l2.498-1.081.271.18.212,2.072v2.72c0,1.11.018,2.954.054,3.76h-1.621ZM149.974,40.238v.639h-4.152v-.639l1.952-.358h.416l1.785.358ZM154.061,35.443v1.673c0,1.146.018,2.954.054,3.76h-1.618c.036-.806.054-2.614.054-3.76v-1.517c0-1.642-.419-2.174-1.478-2.174-.872,0-1.576.374-2.553,1.24h-.392v-.826h.925l-.757.333c.856-1.155,2.215-2.028,3.474-2.028,1.549,0,2.291.953,2.291,3.299ZM153.561,39.879l1.782.358v.639h-4.147v-.639l1.948-.358h.417ZM159.428,35.263v1.853c0,1.146.018,2.954.054,3.76h-1.618c.036-.806.054-2.614.054-3.76v-1.551c0-1.664-.455-2.14-1.493-2.14-.804,0-1.554.333-2.539,1.24h-.441v-.659h.984l-.819.166c.95-1.355,2.257-2.028,3.525-2.028,1.454,0,2.293.903,2.293,3.119ZM158.929,39.879l1.785.358v.639h-4.146v-.639l1.943-.358h.419Z" style="fill:#0f4c5c;"/><path d="M165.836,44.521v.639h-4.608v-.639l2.006-.358h.437l2.165.358ZM162.705,36.263c0-.985-.018-1.53-.054-2.246l-1.413-.161v-.631l2.497-1.081.27.178.142,1.515.072.049v5.589l-.054.114v1.762c0,1.247.018,2.537.054,3.809h-1.567c.036-1.273.054-2.528.054-3.775v-5.122ZM166.382,33.161c-.679,0-1.569.361-2.835,1.593l-.161-.321c1.038-1.596,2.203-2.29,3.442-2.29,1.901,0,3.408,1.677,3.408,4.447s-1.589,4.52-3.68,4.52c-1.122,0-2.222-.525-3.162-2.387l.161-.289c.92,1.171,1.76,1.66,2.638,1.66,1.344,0,2.434-1.051,2.434-3.35s-.936-3.585-2.245-3.585Z" style="fill:#0f4c5c;"/><path d="M174.463,36.168c.751-.266,1.888-.589,2.78-.752v.651c-.808.164-1.859.5-2.396.716-1.566.61-1.765,1.286-1.765,1.824,0,.946.618,1.324,1.429,1.324.61,0,.964-.228,2.061-1.011l.379-.284.247.369-.532.536c-1.063,1.066-1.669,1.57-2.773,1.57-1.311,0-2.396-.756-2.396-2.241,0-1.018.547-1.829,2.967-2.702ZM176.482,39.239v-4.105c0-1.745-.49-2.177-1.67-2.177-.414,0-.946.054-1.615.319l.746-.563-.447,1.523c-.154.558-.441.855-.936.855-.492,0-.787-.271-.829-.727.326-1.368,1.658-2.22,3.493-2.22,1.87,0,2.766.849,2.766,3.113v3.809c0,.78.245,1.06.648,1.06.298,0,.492-.157.689-.394l.365.39c-.43.697-.922.938-1.558.938-.998,0-1.644-.712-1.653-1.82Z" style="fill:#0f4c5c;"/><path d="M180.352,40.423l-.065-1.966h.977l.479,2.129-.885-.408v-.616c.636.483,1.313.733,2.205.733,1.359,0,1.999-.543,1.999-1.36,0-.758-.525-1.151-1.656-1.559l-.832-.303c-1.311-.479-2.167-1.19-2.167-2.415,0-1.31,1.105-2.514,3.117-2.514.972,0,1.73.268,2.509.734l-.074,1.817h-.926l-.367-1.832.665.295v.477c-.577-.445-1.173-.674-1.827-.674-1.092,0-1.663.476-1.663,1.222,0,.788.437,1.095,1.656,1.538l.556.2c1.785.654,2.466,1.5,2.466,2.623,0,1.357-1.185,2.568-3.49,2.568-1.012,0-1.795-.235-2.677-.689Z" style="fill:#0f4c5c;"/><path d="M187.765,40.423l-.065-1.966h.977l.479,2.129-.885-.408v-.616c.636.483,1.313.733,2.205.733,1.359,0,1.999-.543,1.999-1.36,0-.758-.525-1.151-1.656-1.559l-.832-.303c-1.311-.479-2.167-1.19-2.167-2.415,0-1.31,1.105-2.514,3.117-2.514.972,0,1.73.268,2.509.734l-.074,1.817h-.926l-.367-1.832.665.295v.477c-.577-.445-1.173-.674-1.827-.674-1.092,0-1.663.476-1.663,1.222,0,.788.437,1.095,1.656,1.538l.556.2c1.785.654,2.466,1.5,2.466,2.623,0,1.357-1.185,2.568-3.49,2.568-1.012,0-1.795-.235-2.677-.689Z" style="fill:#0f4c5c;"/><path d="M82.982,54.701v-4.342h2.701v.571h-2.037v1.396h1.842v.568h-1.842v1.807h-.664Z" style="fill:#0f4c5c;"/><path d="M88.364,50.358v4.342h-.664v-4.342h.664Z" style="fill:#0f4c5c;"/><path d="M90.525,54.701v-4.342h.766l1.635,2.585c.068.109.148.245.239.407.091.162.185.347.283.555-.016-.21-.027-.41-.033-.602-.007-.191-.01-.349-.01-.473v-2.471h.673v4.342h-.769l-1.466-2.311c-.072-.115-.14-.228-.206-.341-.065-.113-.136-.24-.214-.381-.078-.141-.169-.308-.274-.503.013.272.025.515.035.729.01.214.014.377.014.49v2.317h-.673Z" style="fill:#0f4c5c;"/><path d="M97.652,54.701h-1.413v-4.342h1.454c.427,0,.794.087,1.099.261.305.174.539.422.702.745s.245.709.245,1.16-.082.841-.246,1.166c-.164.325-.402.574-.714.749-.312.175-.687.262-1.126.262ZM96.903,54.118h.711c.492,0,.86-.137,1.104-.412.245-.275.367-.669.367-1.182s-.121-.902-.363-1.174-.6-.408-1.074-.408h-.746v3.177Z" style="fill:#0f4c5c;"/><path d="M105.804,54.701v-1.728l-1.6-2.614h.775l.816,1.384c.068.115.13.224.185.328.056.104.109.22.162.348.054-.132.109-.25.163-.354.054-.104.114-.211.178-.322l.807-1.384h.772l-1.594,2.614v1.728h-.664Z" style="fill:#0f4c5c;"/><path d="M111.484,54.759c-.375,0-.711-.089-1.007-.268-.296-.179-.529-.434-.699-.767-.17-.332-.255-.729-.255-1.192s.085-.863.255-1.197c.17-.333.403-.589.699-.768.296-.179.632-.268,1.007-.268s.71.089,1.004.268c.294.179.526.435.696.768.17.333.255.732.255,1.197s-.085.86-.255,1.193c-.17.333-.402.589-.696.766-.294.178-.629.267-1.004.267ZM111.484,54.153c.247,0,.468-.062.663-.187s.35-.307.464-.548c.114-.241.17-.536.17-.886,0-.352-.057-.648-.17-.89-.114-.242-.268-.425-.464-.549s-.416-.187-.663-.187c-.249,0-.471.062-.667.187s-.351.307-.465.549c-.114.242-.17.539-.17.89,0,.35.057.645.17.886.114.241.269.424.465.548s.419.187.667.187Z" style="fill:#0f4c5c;"/><path d="M117.18,54.768c-.35,0-.654-.067-.914-.2-.26-.133-.46-.317-.603-.552-.143-.235-.214-.504-.214-.807v-2.85h.664v2.795c0,.293.095.535.287.726.191.19.451.286.78.286.326,0,.584-.095.774-.286.19-.19.284-.432.284-.726v-2.795h.668v2.85c0,.303-.072.572-.216.807-.144.235-.345.419-.603.552-.258.133-.56.2-.906.2Z" style="fill:#0f4c5c;"/><path d="M121.067,54.701v-4.342h1.556c.334,0,.613.058.836.175s.391.277.501.482c.111.205.166.441.166.707,0,.291-.066.543-.198.756-.132.213-.33.369-.595.468l.956,1.754h-.755l-.88-1.641h-.924v1.641h-.664ZM121.731,52.492h.822c.319,0,.548-.067.689-.203.141-.135.211-.324.211-.567,0-.245-.071-.439-.213-.581-.142-.143-.373-.214-.694-.214h-.816v1.565Z" style="fill:#0f4c5c;"/><path d="M130.338,54.701h-1.413v-4.342h1.454c.427,0,.794.087,1.099.261.305.174.539.422.702.745s.245.709.245,1.16-.082.841-.246,1.166c-.164.325-.402.574-.714.749-.312.175-.687.262-1.126.262ZM129.589,54.118h.711c.492,0,.86-.137,1.104-.412.245-.275.367-.669.367-1.182s-.121-.902-.363-1.174-.6-.408-1.074-.408h-.746v3.177Z" style="fill:#0f4c5c;"/><path d="M135.096,50.358v4.342h-.664v-4.342h.664Z" style="fill:#0f4c5c;"/><path d="M137.258,54.701v-4.342h1.556c.334,0,.613.058.836.175s.391.277.501.482c.111.205.166.441.166.707,0,.291-.066.543-.198.756-.132.213-.33.369-.595.468l.956,1.754h-.755l-.88-1.641h-.924v1.641h-.664ZM137.922,52.492h.822c.319,0,.548-.067.689-.203.141-.135.211-.324.211-.567,0-.245-.071-.439-.213-.581-.142-.143-.373-.214-.694-.214h-.816v1.565Z" style="fill:#0f4c5c;"/><path d="M142.324,54.701v-4.342h2.734v.571h-2.069v1.294h1.923v.568h-1.923v1.338h2.087v.571h-2.751Z" style="fill:#0f4c5c;"/><path d="M148.927,54.759c-.377,0-.712-.089-1.007-.268-.294-.179-.526-.434-.695-.767s-.253-.729-.253-1.192.085-.863.255-1.197c.17-.333.402-.589.697-.768.294-.179.629-.268,1.004-.268.305,0,.584.058.837.173.253.116.462.283.629.501.167.219.275.482.323.789h-.667c-.054-.276-.186-.488-.395-.635-.209-.148-.449-.221-.721-.221-.249,0-.471.062-.667.188-.196.125-.351.309-.465.551-.114.242-.17.538-.17.888,0,.352.057.648.17.889.114.241.269.423.465.546.196.124.419.185.667.185.272,0,.512-.074.721-.223.209-.149.341-.361.395-.637h.67c-.045.288-.148.541-.31.761-.162.22-.37.392-.624.517-.254.125-.54.188-.858.188Z" style="fill:#0f4c5c;"/><path d="M152.482,50.929v-.571h3.372v.571h-1.349v3.771h-.667v-3.771h-1.355Z" style="fill:#0f4c5c;"/><path d="M158.461,50.358v4.342h-.664v-4.342h.664Z" style="fill:#0f4c5c;"/><path d="M162.432,54.759c-.375,0-.711-.089-1.007-.268-.296-.179-.529-.434-.699-.767-.17-.332-.255-.729-.255-1.192s.085-.863.255-1.197c.17-.333.403-.589.699-.768.296-.179.632-.268,1.007-.268s.71.089,1.004.268c.294.179.526.435.696.768.17.333.255.732.255,1.197s-.085.86-.255,1.193c-.17.333-.402.589-.696.766-.294.178-.629.267-1.004.267ZM162.432,54.153c.247,0,.468-.062.663-.187s.35-.307.464-.548c.114-.241.17-.536.17-.886,0-.352-.057-.648-.17-.89-.114-.242-.268-.425-.464-.549s-.416-.187-.663-.187c-.249,0-.471.062-.667.187s-.351.307-.465.549c-.114.242-.17.539-.17.89,0,.35.057.645.17.886.114.241.269.424.465.548s.419.187.667.187Z" style="fill:#0f4c5c;"/><path d="M166.398,54.701v-4.342h.766l1.635,2.585c.068.109.148.245.239.407.091.162.185.347.283.555-.016-.21-.027-.41-.033-.602-.007-.191-.01-.349-.01-.473v-2.471h.673v4.342h-.769l-1.466-2.311c-.072-.115-.14-.228-.206-.341-.065-.113-.136-.24-.214-.381-.078-.141-.169-.308-.274-.503.013.272.025.515.035.729.01.214.014.377.014.49v2.317h-.673Z" style="fill:#0f4c5c;"/><path d="M37.762,49.803c-.016.085-.101.271-.162.252l-.32-.1-.634-3.364c-4.987-.478-8.839-4.309-9.3-9.349l-3.399-.639c-.051-.066-.117-.159-.133-.214-.021-.069.101-.203.171-.248l3.366-.642c.334-3.714,2.574-6.847,5.883-8.405,1.096-.516,2.213-.773,3.415-.906l.633-3.358c.097-.117.33-.116.434.002l.648,3.362c5.04.474,8.824,4.379,9.282,9.312l3.299.61c.091.017.246.188.244.278s-.159.207-.271.228l-3.27.623c-.457,4.977-4.262,8.864-9.277,9.335l-.608,3.222ZM35.399,32.85l.597-3.082.308-1.614c-1.745.254-3.23.973-4.488,2.151l.558.428.695.455,2.331,1.662ZM41.95,31.172l.454-.324.71-.545c-1.263-1.16-2.724-1.889-4.377-2.114l.227,1.285.646,3.378,1.503-1.085.838-.596ZM33.976,34.289l-1.712-2.468-.791-1.172c-1.154,1.169-1.996,2.812-2.222,4.493.265-.003.442-.029.665-.072l4.059-.781ZM45.678,35.178c-.24-1.686-.997-3.245-2.17-4.476l-.634.946-1.844,2.634,4.648.896ZM38.966,36.382c0-.807-.654-1.462-1.462-1.462s-1.462.654-1.462,1.462.654,1.462,1.462,1.462,1.462-.654,1.462-1.462ZM31.96,41.352l2.012-2.892-3.448-.629-1.297-.263c.206,1.668.985,3.318,2.16,4.558l.574-.774ZM42.652,40.745l.501.683.419.654.622-.757c.81-1.113,1.306-2.366,1.5-3.722l-1.002.116-.57.18-3.105.56,1.634,2.286ZM42.719,42.895l.48-.398-.552-.482-.491-.326-2.546-1.833-.626,3.317-.263,1.505c1.481-.199,2.877-.851,3.999-1.782ZM36.282,44.705l-.15-.911-.172-.981-.561-2.94-2.556,1.832-1.096.783c1.251,1.213,2.868,1.966,4.535,2.217Z" style="fill:#0f4c5c; stroke:#0f4c5c; stroke-miterlimit:10; stroke-width:.025px;"/></svg>